<?xml version="1.0" standalone="no"?>
<!DOCTYPE svg PUBLIC "-//W3C//DTD SVG 20010904//EN"
 "http://www.w3.org/TR/2001/REC-SVG-20010904/DTD/svg10.dtd">
<svg version="1.0" xmlns="http://www.w3.org/2000/svg"
 width="256.000000pt" height="256.000000pt" viewBox="0 0 256.000000 256.000000"
 preserveAspectRatio="xMidYMid meet">
<metadata>
Created by potrace 1.14, written by Peter Selinger 2001-2017
</metadata>
<g transform="translate(0.000000,256.000000) scale(0.100000,-0.100000)"
fill="#000000" stroke="none">
<path d="M273 2005 c-88 -27 -168 -90 -211 -167 -42 -74 -52 -204 -23 -281 9
-22 8 -27 -4 -27 -13 0 -15 -64 -15 -485 l0 -485 23 1 c12 0 291 -2 620 -5
l597 -5 1 32 c0 18 1 76 0 129 l-1 98 56 -52 c144 -136 300 -194 514 -191 310
4 603 234 685 538 9 33 18 106 21 162 3 83 -1 118 -20 196 -73 286 -269 474
-567 543 -60 14 -227 10 -305 -7 -132 -29 -293 -120 -367 -209 l-26 -31 -28
58 c-36 75 -93 132 -168 169 -51 25 -72 29 -140 29 -69 0 -89 -4 -145 -32 -36
-17 -81 -45 -99 -62 l-35 -30 -44 40 c-24 23 -65 50 -90 62 -57 25 -168 31
-229 12z"/>
</g>
</svg>
