<?xml version="1.0" encoding="utf-8"?>
<!-- Generator: Adobe Illustrator 23.1.1, SVG Export Plug-In . SVG Version: 6.00 Build 0)  -->
<svg version="1.1" id="outputsvg" xmlns="http://www.w3.org/2000/svg" xmlns:xlink="http://www.w3.org/1999/xlink" x="0px" y="0px"
	 viewBox="0 0 202 148" style="enable-background:new 0 0 202 148;" xml:space="preserve">
<style type="text/css">
	.st0{fill:#FFFFFF;}
	.st1{fill:#29599D;}
</style>
<g id="l6dRWZJ3fJMkq95SUmMfzqc">
	<g>
		<path class="st0" d="M51.9,131.8l-0.3-0.1c-2.5-0.1-8.5-0.3-15.5-0.4L11,130.9V60.1l2,0c-1.3-3.2-2-6.7-2-10.4
			c0-8.9,3.9-16,11.5-21.1c4.2-2.8,9.1-4.3,14.1-4.3c9.8,0,18.8,5.8,22.8,14.8c3.3,7.1,3.3,14.5,0.6,20.9h2v36
			c0,7.3,0,14.3-0.1,19.7c0,2.5,0,4.6-0.1,6c0,0.8,0,1.4,0,1.8c-0.2,6.1-4.9,8.3-8,8.3H51.9z"/>
		<path id="p4kZsZfPy" class="st1" d="M36.2,123.3L19,123V95.5V68l6.8-0.1c6.1-0.1,6.4-0.2,4-1.3c-6.9-3-10.8-9.1-10.8-16.9
			c0-6.2,2.5-10.8,7.9-14.4c8.9-6,20.8-2.6,25.2,7.1c4.3,9.4,0.8,19-8.6,23.9l-3,1.6l6.8,0.1H54v28c0,15.4-0.1,27.9-0.2,27.8
			C53.6,123.7,45.7,123.4,36.2,123.3z M44.3,112.1l7.7-8.9V86.6V70H36.5H21v25.5V121h7.8h7.8L44.3,112.1z M44.6,63
			c9.5-5.9,9.2-20.4-0.6-25.9C30.6,29.6,15.9,43.4,22.8,57C26.6,64.6,37.2,67.5,44.6,63z"/>
		<path class="st0" d="M99.7,60c3-7.1,2.7-15-0.8-21.8C95.2,31,88.4,26.1,80.2,24.6c-1.2-0.2-2.4-0.3-3.7-0.3
			c-9.3,0-18.8,5.9-23.3,14.2l-0.1,0.1c-0.4,0.7-0.7,1.6-1,2.4c0.2,0.2,0.4,0.5,0.6,0.7c0.2,0.3,0.3,0.5,0.4,0.8
			c0.4,0.7,0.7,1.5,0.8,2.4c0,0,0,0,0,0c0.4,2.3,0.2,4.8,0.2,7.2c0,1.1-0.3,2-0.9,2.8c-0.1,1.2-0.4,2.2-1.1,3.1c0,0.1,0,0.2,0,0.3
			c0.2,0.5,0.4,1,0.6,1.5h-1c-0.3,0.8-0.9,1.5-1.6,1.9v4.1c0.5-0.2,1-0.2,1.6-0.2c4.8,0,6,5.5,3.7,8.3c-0.1,0.3-0.2,0.6-0.4,0.8
			c0.2,1.1,0.3,2.2,0.2,3.4c-0.2,1.4-0.7,2.6-1.5,3.5c0,0.4-0.1,0.8-0.1,1.2c1.5,0.7,2.7,2.1,2.7,4.3c0,5.2,1.1,10.3,0.4,15.5
			c-0.6,4.5-0.7,8.9-0.8,13.4c4.1,2,3.4,9.5-2.2,9.5c-1.6,0-2.8-0.6-3.6-1.6v7.7h52V60H99.7z"/>
		<path id="p4KdTpALD" class="st1" d="M58,96V68h7.3c7.1,0,7.2,0,4.2-1.6c-4-2.1-7.4-5.3-9.2-8.8c-2-3.8-2-11.4,0-15.3
			c3.5-6.6,11.8-11,18.5-9.8c11.8,2.1,18.3,14.2,13.3,25c-2,4.3-4,6.4-8.6,8.8l-3,1.6l6.8,0.1H94v28v28H76H58V96z M70.5,85.9
			c2.7-2.6,7.8-7.1,11.3-10c3.4-2.8,6.2-5.4,6.2-5.6c0-0.1-6.1-0.3-13.5-0.3H61v12.2v12.1l2.2-1.9C64.5,91.4,67.7,88.4,70.5,85.9z
			 M84.8,62.9c6.3-3.8,8.7-15,4.6-20.7C85.9,37.5,81.2,35,76,35c-10.9,0-18,11-13.6,21.3C65.9,64.6,76.9,67.8,84.8,62.9z"/>
		<path class="st0" d="M194.4,65.3c-4.2-17.8-17-31.9-34.1-37.8c-6-2.1-12.2-3.1-18.4-3.1c-15.1,0-28.9,6.1-39.1,17.1
			c-7.2,7.8-11.7,16.8-13.6,26.2c3-0.6,5.7,1.7,5.9,4.9c0.6,7.5-0.9,14.9-1.3,22.4c0.2,0.3,0.3,0.7,0.4,1c0.4,1.3,0.1,2.6-0.5,3.9
			c0,0,0,0,0,0c0,0,0,0.1,0,0.1c0,0.1,0,0.2-0.1,0.3c2.3,4.5,5.2,8.8,8.9,12.8c7.7,8.4,14.7,12.8,24.6,15.6
			c4.9,1.4,9.9,2.1,14.9,2.1c14.4,0,28.1-5.8,38.6-16.3C193.5,101.6,198.7,83.2,194.4,65.3z"/>
		<path id="pAJsev1v7" class="st1" d="M129.4,121.1c-8.6-2.4-14.2-6-20.9-13.3C92,90.1,92.1,64.9,108.7,47
			c12.4-13.5,31.2-18,49-11.9c31.1,10.6,40.4,50.5,17.3,73.9C162.8,121.2,145.7,125.8,129.4,121.1z M166.8,109
			c10.3-5.2,16.3-13.6,18.3-25.7c2.8-17.7-6.9-35.6-23.8-44c-6.5-3.2-8.6-3.7-16.3-4.1c-18-0.9-32.2,6.9-41.4,22.6
			c-0.4,0.7,2.3-0.7,6.1-3.2c17.1-11,33.5-14.2,45.8-8.7c12.9,5.7,20.6,20.3,17.5,33.2c-1,4.1-2.4,6.4-6.4,10.5
			c-8.9,9.2-21.6,10.8-22.4,2.9c-0.5-5.6-1.2-7.4-3.2-8c-7.1-2.2-11.9,11.8-6.7,19.6C139.8,112.5,155.1,114.8,166.8,109z"/>
	</g>
</g>
</svg>
